/* XPM */
static char * bitcoin32_xpm[] = {
"32 32 576 2",
"  	c None",
". 	c #FDAC00",
"+ 	c #FDA800",
"@ 	c #FBA200",
"# 	c #FA9F00",
"$ 	c #FA9C00",
"% 	c #F79800",
"& 	c #F39200",
"* 	c #EF8E00",
"= 	c #EC8900",
"- 	c #E78500",
"; 	c #E58100",
"> 	c #E27C00",
", 	c #E17900",
"' 	c #DF7400",
") 	c #DD7100",
"! 	c #DB6E00",
"~ 	c #D96900",
"{ 	c #D76600",
"] 	c #D66300",
"^ 	c #D56000",
"/ 	c #D55C00",
"( 	c #D35800",
"_ 	c #D55600",
": 	c #D95300",
"< 	c #D95000",
"[ 	c #FDB000",
"} 	c #FBA900",
"| 	c #FBA500",
"1 	c #FBA300",
"2 	c #FBA100",
"3 	c #FB9F00",
"4 	c #FB9C00",
"5 	c #FB9A00",
"6 	c #FB9700",
"7 	c #FB9500",
"8 	c #FB9200",
"9 	c #FB8F00",
"0 	c #FB8C00",
"a 	c #FA8900",
"b 	c #FA8600",
"c 	c #FA8200",
"d 	c #FA8000",
"e 	c #F97C00",
"f 	c #F87900",
"g 	c #F87500",
"h 	c #F87200",
"i 	c #F86F00",
"j 	c #F76A00",
"k 	c #F76700",
"l 	c #F66300",
"m 	c #F25D00",
"n 	c #E75600",
"o 	c #FFB900",
"p 	c #FFB300",
"q 	c #FBA700",
"r 	c #FB8D00",
"s 	c #FB8A00",
"t 	c #FB8700",
"u 	c #FB8300",
"v 	c #FC8100",
"w 	c #FC7E00",
"x 	c #FB7A00",
"y 	c #FB7700",
"z 	c #FB7400",
"A 	c #FB7000",
"B 	c #FB6C00",
"C 	c #FB6900",
"D 	c #FD6600",
"E 	c #FF6500",
"F 	c #F15900",
"G 	c #FBAF00",
"H 	c #FFB700",
"I 	c #FCAC00",
"J 	c #FBAB00",
"K 	c #FB8600",
"L 	c #FB8100",
"M 	c #FB7D00",
"N 	c #FA7A00",
"O 	c #FA7700",
"P 	c #FA7300",
"Q 	c #FA7000",
"R 	c #FA6C00",
"S 	c #FA6800",
"T 	c #FB6500",
"U 	c #DE5200",
"V 	c #FBB300",
"W 	c #FFB400",
"X 	c #FCAE00",
"Y 	c #FCAD00",
"Z 	c #FC9A00",
"` 	c #FF9900",
" .	c #FF9800",
"..	c #FF9600",
"+.	c #FF9200",
"@.	c #FF8E00",
"#.	c #FC8A00",
"$.	c #EF5C00",
"%.	c #FBB400",
"&.	c #FCB400",
"*.	c #FCB200",
"=.	c #FCB000",
"-.	c #FDA400",
";.	c #FFA800",
">.	c #FFA100",
",.	c #F49702",
"'.	c #E88E06",
").	c #E28907",
"!.	c #E88906",
"~.	c #F58D02",
"{.	c #FF9100",
"].	c #FF9300",
"^.	c #FF8C00",
"/.	c #FD8400",
"(.	c #FB8000",
"_.	c #FBB500",
":.	c #FCB500",
"<.	c #FCB300",
"[.	c #FCA900",
"}.	c #FFAF00",
"|.	c #FFA900",
"1.	c #C38713",
"2.	c #7F6329",
"3.	c #4F4938",
"4.	c #343B3F",
"5.	c #273242",
"6.	c #222F41",
"7.	c #25303F",
"8.	c #323539",
"9.	c #4E4030",
"0.	c #7F5521",
"a.	c #C5730E",
"b.	c #FF8A00",
"c.	c #F66600",
"d.	c #FBB700",
"e.	c #FCB600",
"f.	c #BC8916",
"g.	c #494B3F",
"h.	c #132D50",
"i.	c #0B2750",
"j.	c #102A4C",
"k.	c #142B49",
"l.	c #172B47",
"m.	c #172A44",
"n.	c #152844",
"o.	c #112542",
"p.	c #0C2242",
"q.	c #041D42",
"r.	c #0C203E",
"s.	c #43382E",
"t.	c #BC6C10",
"u.	c #FF8B00",
"v.	c #FD8200",
"w.	c #F9B600",
"x.	c #FCB800",
"y.	c #FCB100",
"z.	c #816928",
"A.	c #102D54",
"B.	c #112D52",
"C.	c #1E334B",
"D.	c #1E314A",
"E.	c #1D3048",
"F.	c #1C2F47",
"G.	c #1C2D45",
"H.	c #1B2C43",
"I.	c #1A2A42",
"J.	c #192940",
"K.	c #19283E",
"L.	c #18263D",
"M.	c #16243B",
"N.	c #071D3E",
"O.	c #061B3C",
"P.	c #8D561A",
"Q.	c #F76E00",
"R.	c #F4B400",
"S.	c #FCB900",
"T.	c #FCB700",
"U.	c #FEB500",
"V.	c #856B23",
"W.	c #0B2B59",
"X.	c #1D3450",
"Y.	c #1F344D",
"Z.	c #1F334B",
"`.	c #17253B",
" +	c #17243A",
".+	c #112039",
"++	c #00173C",
"@+	c #A25F14",
"#+	c #F77200",
"$+	c #F1B200",
"%+	c #FCBA00",
"&+	c #FDB700",
"*+	c #FFB800",
"=+	c #BE8B0A",
"-+	c #1E3652",
";+	c #1C3553",
">+	c #21364F",
",+	c #1D334E",
"'+	c #172F4F",
")+	c #162D4E",
"!+	c #1C3048",
"~+	c #18283E",
"{+	c #102240",
"]+	c #0E213E",
"^+	c #14233B",
"/+	c #172238",
"(+	c #0D1D39",
"_+	c #1B2333",
":+	c #E57D05",
"<+	c #FE8700",
"[+	c #F77500",
"}+	c #EEB100",
"|+	c #FCBB00",
"1+	c #FFBA00",
"2+	c #F5AE00",
"3+	c #675C2E",
"4+	c #12305A",
"5+	c #213750",
"6+	c #112D54",
"7+	c #19304E",
"8+	c #3B413E",
"9+	c #3B403D",
"0+	c #172D4B",
"a+	c #1B2E47",
"b+	c #172841",
"c+	c #0F2340",
"d+	c #333232",
"e+	c #353331",
"f+	c #12223B",
"g+	c #0A1C3C",
"h+	c #162136",
"i+	c #00153A",
"j+	c #82511B",
"k+	c #FF9000",
"l+	c #F77800",
"m+	c #EAAF00",
"n+	c #FCBC00",
"o+	c #FFBB00",
"p+	c #D29901",
"q+	c #374448",
"r+	c #163257",
"s+	c #102D56",
"t+	c #615A37",
"u+	c #C79410",
"v+	c #ECA200",
"w+	c #D89200",
"x+	c #715B24",
"y+	c #12294B",
"z+	c #0E2343",
"A+	c #8E651D",
"B+	c #ED9500",
"C+	c #D98400",
"D+	c #A5670C",
"E+	c #473928",
"F+	c #071A3B",
"G+	c #061938",
"H+	c #342E2C",
"I+	c #F88901",
"J+	c #FE8800",
"K+	c #E7AE00",
"L+	c #FCBD00",
"M+	c #FEBC00",
"N+	c #AD840E",
"O+	c #13315A",
"P+	c #173256",
"Q+	c #9C7F23",
"R+	c #FFBD00",
"S+	c #FFB500",
"T+	c #F3A600",
"U+	c #C58701",
"V+	c #2C3740",
"W+	c #162A47",
"X+	c #1A2C43",
"Y+	c #122644",
"Z+	c #343838",
"`+	c #FFA300",
" @	c #FFA500",
".@	c #FF9E00",
"+@	c #F49400",
"@@	c #D78000",
"#@	c #764F19",
"$@	c #0A1A38",
"%@	c #041737",
"&@	c #D57A08",
"*@	c #FF8F00",
"=@	c #FC8300",
"-@	c #F97F00",
";@	c #E5AD00",
">@	c #FCBE00",
",@	c #FFBF00",
"'@	c #F2B200",
")@	c #A17D11",
"!@	c #39474B",
"~@	c #C19616",
"{@	c #FFC200",
"]@	c #FEB600",
"^@	c #FDB200",
"/@	c #D59200",
"(@	c #414137",
"_@	c #0D264B",
":@	c #112746",
"<@	c #0A2247",
"[@	c #4D4532",
"}@	c #FDA100",
"|@	c #FF9F00",
"1@	c #F69600",
"2@	c #E18600",
"3@	c #915B0F",
"4@	c #2F2C2D",
"5@	c #D47D09",
"6@	c #F98200",
"7@	c #E3AC00",
"8@	c #FDBE00",
"9@	c #F4B600",
"0@	c #E6AB00",
"a@	c #FFC000",
"b@	c #FDB400",
"c@	c #FEB300",
"d@	c #CB8E02",
"e@	c #243243",
"f@	c #2D363E",
"g@	c #9E7213",
"h@	c #222F3E",
"i@	c #2D343B",
"j@	c #F9A401",
"k@	c #FEA500",
"l@	c #FB9E00",
"m@	c #FE9E00",
"n@	c #F89800",
"o@	c #EF8F00",
"p@	c #F99300",
"q@	c #F98500",
"r@	c #E2AC00",
"s@	c #FBBF00",
"t@	c #FCBF00",
"u@	c #FDB900",
"v@	c #FFBE00",
"w@	c #8D6C19",
"x@	c #001D52",
"y@	c #AA7E19",
"z@	c #FAA600",
"A@	c #816119",
"B@	c #001A49",
"C@	c #B58013",
"D@	c #FFAA00",
"E@	c #FE9D00",
"F@	c #FF9C00",
"G@	c #FC9500",
"H@	c #E0AA00",
"I@	c #FCC000",
"J@	c #FFC600",
"K@	c #F5B503",
"L@	c #E2A909",
"M@	c #CA9B12",
"N@	c #91731F",
"O@	c #192D48",
"P@	c #494939",
"Q@	c #F4A800",
"R@	c #D08D00",
"S@	c #383A34",
"T@	c #202C3E",
"U@	c #9D7419",
"V@	c #C88A0E",
"W@	c #E19507",
"X@	c #F49E02",
"Y@	c #FFA400",
"Z@	c #FFA700",
"`@	c #FB9000",
" #	c #FA8C00",
".#	c #DDA900",
"+#	c #FBC000",
"@#	c #FFC500",
"##	c #D5A70F",
"$#	c #7C6F30",
"%#	c #50543F",
"&#	c #384446",
"*#	c #24374B",
"=#	c #162E4E",
"-#	c #0D2750",
";#	c #0F284D",
">#	c #C69311",
",#	c #FEB200",
"'#	c #E89E00",
")#	c #956C12",
"!#	c #081F44",
"~#	c #061C42",
"{#	c #0F203D",
"]#	c #1C2739",
"^#	c #2F3032",
"/#	c #483E2A",
"(#	c #75551F",
"_#	c #D68909",
":#	c #FFA000",
"<#	c #FA8F00",
"[#	c #DBA900",
"}#	c #FCC100",
"|#	c #FDC100",
"1#	c #FFC300",
"2#	c #C1990E",
"3#	c #223953",
"4#	c #0C2B5A",
"5#	c #153055",
"6#	c #183152",
"7#	c #1B324E",
"8#	c #1E324B",
"9#	c #172D4C",
"0#	c #333D41",
"a#	c #F8B201",
"b#	c #F5AA00",
"c#	c #C28702",
"d#	c #273039",
"e#	c #13233F",
"f#	c #0E1E3A",
"g#	c #081A39",
"h#	c #00123A",
"i#	c #192132",
"j#	c #DA8B07",
"k#	c #FE9F00",
"l#	c #FA9100",
"m#	c #DAA700",
"n#	c #FAC100",
"o#	c #FDC200",
"p#	c #FFC400",
"q#	c #F4B800",
"r#	c #7C6C24",
"s#	c #11305C",
"t#	c #233852",
"u#	c #20364F",
"v#	c #182E4B",
"w#	c #2A3844",
"x#	c #F0AF04",
"y#	c #F4AF03",
"z#	c #FFB600",
"A#	c #BF8704",
"B#	c #202C3C",
"C#	c #14243E",
"D#	c #16243A",
"E#	c #162238",
"F#	c #152136",
"G#	c #151F35",
"H#	c #001138",
"I#	c #9D6A14",
"J#	c #FA9400",
"K#	c #D9A700",
"L#	c #EDB300",
"M#	c #817023",
"N#	c #15325A",
"O#	c #223852",
"P#	c #172C4A",
"Q#	c #474939",
"R#	c #545034",
"S#	c #2F383E",
"T#	c #514B31",
"U#	c #3A3C34",
"V#	c #142540",
"W#	c #141F35",
"X#	c #011437",
"Y#	c #A26E13",
"Z#	c #D7A700",
"`#	c #FDC300",
" $	c #EEB400",
".$	c #9D7F15",
"+$	c #193558",
"@$	c #213852",
"#$	c #1F3651",
"$$	c #152F54",
"%$	c #102B53",
"&$	c #152D4F",
"*$	c #1E3148",
"=$	c #11294A",
"-$	c #0F2549",
";$	c #142845",
">$	c #0D2246",
",$	c #112443",
"'$	c #1A293E",
")$	c #0C1F3E",
"!$	c #061B3F",
"~$	c #0B1C3B",
"{$	c #132037",
"]$	c #131F35",
"^$	c #091836",
"/$	c #C9850B",
"($	c #FB9900",
"_$	c #D7A600",
":$	c #F3BA00",
"<$	c #C59702",
"[$	c #354449",
"}$	c #07285D",
"|$	c #1D3451",
"1$	c #4E513A",
"2$	c #6C612C",
"3$	c #474A39",
"4$	c #172D4D",
"5$	c #0F213F",
"6$	c #433E2D",
"7$	c #655122",
"8$	c #423B2A",
"9$	c #121F37",
"0$	c #000D3C",
"a$	c #33312C",
"b$	c #F8A501",
"c$	c #D6A600",
"d$	c #FDC400",
"e$	c #FCC300",
"f$	c #AE8A0F",
"g$	c #917D24",
"h$	c #D2A50E",
"i$	c #FEC100",
"j$	c #F8B900",
"k$	c #D59E00",
"l$	c #4B4C36",
"m$	c #132A4D",
"n$	c #102649",
"o$	c #0B2248",
"p$	c #102446",
"q$	c #0A1F42",
"r$	c #615429",
"s$	c #FAB600",
"t$	c #E09900",
"u$	c #AC790A",
"v$	c #8E6717",
"w$	c #D79309",
"x$	c #FFAC00",
"y$	c #D6A700",
"z$	c #F9C200",
"A$	c #FCC200",
"B$	c #FFCC00",
"C$	c #FFC800",
"D$	c #ECB000",
"E$	c #7F6A1F",
"F$	c #072351",
"G$	c #0E264C",
"H$	c #524E31",
"I$	c #81691F",
"J$	c #4A472F",
"K$	c #0D2245",
"L$	c #001745",
"M$	c #A67F17",
"N$	c #FFB200",
"O$	c #FFB100",
"P$	c #FBA800",
"Q$	c #D6A500",
"R$	c #ECB200",
"S$	c #9F7D0F",
"T$	c #1B2E48",
"U$	c #816F27",
"V$	c #D59B00",
"W$	c #5E5225",
"X$	c #1D2A3E",
"Y$	c #D39C0B",
"Z$	c #FDB100",
"`$	c #D5A500",
" %	c #F9C100",
".%	c #FDC500",
"+%	c #FCC400",
"@%	c #F5BB00",
"#%	c #E2AB00",
"$%	c #E8B104",
"%%	c #F0B200",
"&%	c #E6A900",
"*%	c #EEB004",
"=%	c #D2A300",
"-%	c #F3BD00",
";%	c #FDBF00",
">%	c #FCA800",
",%	c #E0AE00",
"'%	c #FFCD00",
")%	c #FAA900",
"!%	c #F5BF00",
"~%	c #FFCE00",
"{%	c #EBB600",
"]%	c #F4BE00",
"^%	c #F8C100",
"/%	c #FAC000",
"(%	c #FBBE00",
"_%	c #FBBD00",
"        . + @ # $ % & * = - ; > , ' ) ! ~ { ] ^ / ( _ : <       ",
"      [ } | 1 2 3 4 5 6 7 8 9 0 a b c d e f g h i j k l m n     ",
"    o p } q | 1 2 3 4 5 6 7 8 9 r s t u v w x y z A B C D E F   ",
"  G H I J } q | 1 2 3 4 5 6 7 8 9 0 s K u L M N O P Q R S T E U ",
"V W [ X Y J } q | 1 2 3 4 Z `  ...+.@.#.K u L M N O P Q R S D $.",
"%.&.*.=.X Y J } q | -.;.;.>.,.'.).!.~.{.].^./.(.M N O P Q R C l ",
"_.:.<.*.=.X Y J [.}.|.1.2.3.4.5.6.7.8.9.0.a.b.b.v M N O P Q B c.",
"d.e.:.<.*.=.X }.p f.g.h.i.j.k.l.m.n.o.p.q.r.s.t.u.v.M N O P A j ",
"w.x.e.:.<.y.p [ z.A.B.C.D.E.F.G.H.I.J.K.L.M.N.O.P.u.v M N O z Q.",
"R.S.T.e.&.U.W V.W.X.Y.Z.D.E.F.G.H.I.J.K.L.`. +.+++@+^.(.M N y #+",
"$+%+S.T.&+*+=+-+;+>+,+'+)+!+F.G.H.I.J.~+{+]+^+/+(+_+:+<+L M x [+",
"}+|+%+x.1+2+3+4+5+6+7+8+9+0+a+G.H.I.b+c+d+e+f+g+h+i+j+k+u L w l+",
"m+n+|+%+o+p+q+r+s+t+u+v+w+x+y+G.H.I.z+A+B+C+D+E+F+G+H+I+J+u v e ",
"K+L+n+M+x.N+O+P+Q+R+1+S+T+U+V+W+X+Y+Z+`+ @.@+@@@#@$@%@&@*@K =@-@",
";@>@L+,@'@)@!@~@{@]@<.^@G /@(@_@:@<@[@;.}@3 |@1@2@3@4@5@{.s t 6@",
"7@>@>@8@9@0@S.a@T.e.&.b@c@d@e@f@g@h@i@j@k@2 l@m@n@o@p@8 9 0 s q@",
"r@s@t@>@8@,@R+%+u@1+o+v@1+w@x@y@z@A@B@C@*+D@ @>.E@F@` G@8 9 r a ",
"H@s@I@t@>@L+{@J@,@K@L@M@N@O@P@*+Q@R@S@T@U@V@W@X@Y@Z@|@6 7 8 `@ #",
".#+#I@t@t@@###$#%#&#*#=#-#;#>#o+,#'#)#!#~#{#]#^#/#(#_#:#6 7 8 <#",
"[#+#}#|#1#2#3#4#5#6#7#8#9#0#a#H H b#c#d#e#M.f+f#g#h#i#j#k#6 7 l#",
"m#n#o#p#q#r#s#t#5+u#Y.Z.v#w#x#v@y#z#A#B#C#`.D#E#F#G#H#I#Z@5 6 J#",
"K#n#o#p#L#M#N#O#5+u#Y.Z.D.P#Q#R#S#T#U#V#L.`.D#E#F#W#X#Y#|.4 5 6 ",
"Z#n#`#@# $.$+$@$#$$$%$&$D.*$=$-$;$>$,$'$L.)$!$~${$]$^$/$;.3 4 ($",
"_$n#`#p#:$<$[$}$|$1$2$3$4$E.F.G.H.I.J.K.5$6$7$8$9$0$a$b$k@2 3 4 ",
"c$n#d$e$e$H@f$g$h$i$j$k$l$m$F.n$o$p$J.q$r$s$X t$u$v$w$x$| 1 2 l@",
"y$z$d$e$`#A$p#B$C${@p#D$E$F$G$H$I$J$K$L$M${@W N$O$H O$P$q | 1 2 ",
"Q$z$d$e$e$`#`#A$}#}#1#R$S$T$U$p#x.V$W$X$Y$o+<.*.Z$X I J } q | 1 ",
"`$ %.%+%e$e$e$A$A$}#o#@%#%$%p#a@,@%%&%*%o+e.:.<.*.=.X Y J } q | ",
"=%-%J@+%+%e$e$e$A$A$}#o#p#p#;%>@L+v@,@R+S.T.e.:.<.*.=.X Y J [.>%",
"  ,%'%d$+%+%e$e$e$A$A$}#}#I@I@t@>@L+n+|+%+x.T.e.:.<.*.=.X I W )%",
"    !%~%J@.%d$d$d$`#`#o#o#}#I@I@t@>@L+n+|+%+x.T.e.:.<.y.[ H *+  ",
"      {%]%^%z$ % % % %/%/%/%+#s@s@(%_%L+n+|+%+S.x.e.:.&.:.&+    "};
