/* XPM */
static char * bitcoin16_xpm[] = {
"16 16 215 2",
"  	c None",
". 	c #FCAB00",
"+ 	c #FDA600",
"@ 	c #FA9C00",
"# 	c #F79500",
"$ 	c #F38E00",
"% 	c #EF8700",
"& 	c #ED8000",
"* 	c #EB7900",
"= 	c #E97200",
"- 	c #E76B00",
"; 	c #E66400",
"> 	c #EC6000",
", 	c #E65700",
"' 	c #FBAC00",
") 	c #FEAF00",
"! 	c #FBA500",
"~ 	c #FBA000",
"{ 	c #FB9C00",
"] 	c #FB9700",
"^ 	c #FC9200",
"/ 	c #FC8D00",
"( 	c #FB8600",
"_ 	c #FB8000",
": 	c #FA7900",
"< 	c #FA7300",
"[ 	c #FA6C00",
"} 	c #FC6600",
"| 	c #EA5700",
"1 	c #FCB200",
"2 	c #FFB600",
"3 	c #FCAC00",
"4 	c #FBA900",
"5 	c #FFA600",
"6 	c #FF9E00",
"7 	c #FF9600",
"8 	c #FF9300",
"9 	c #FF8F00",
"0 	c #FF8500",
"a 	c #FB7A00",
"b 	c #FC6C00",
"c 	c #FF6600",
"d 	c #FFB800",
"e 	c #FCB400",
"f 	c #FCB000",
"g 	c #FEAE00",
"h 	c #FFB200",
"i 	c #D4920E",
"j 	c #856527",
"k 	c #5B4D33",
"l 	c #4E4434",
"m 	c #5A472E",
"n 	c #845720",
"o 	c #D3760A",
"p 	c #FF8800",
"q 	c #FB7B00",
"r 	c #FA6B00",
"s 	c #FAB700",
"t 	c #FCB600",
"u 	c #FDB400",
"v 	c #FFB500",
"w 	c #8D7126",
"x 	c #173050",
"y 	c #082651",
"z 	c #0D284C",
"A 	c #0E2647",
"B 	c #0A2244",
"C 	c #011C43",
"D 	c #0D203C",
"E 	c #915819",
"F 	c #FF8700",
"G 	c #F97300",
"H 	c #F6B600",
"I 	c #FCB900",
"J 	c #FFBE00",
"K 	c #AE8517",
"L 	c #03265B",
"M 	c #0C2953",
"N 	c #162D4C",
"O 	c #182D49",
"P 	c #1D2D42",
"Q 	c #142641",
"R 	c #0F203F",
"S 	c #031A3F",
"T 	c #00153D",
"U 	c #BF6B0E",
"V 	c #F3B500",
"W 	c #FFBD00",
"X 	c #3F4742",
"Y 	c #293C4F",
"Z 	c #AB851A",
"` 	c #B28011",
" .	c #2C3640",
"..	c #0A2349",
"+.	c #343739",
"@.	c #BC7C0E",
"#.	c #966214",
"$.	c #111E36",
"%.	c #473629",
"&.	c #FF8E00",
"*.	c #F0B500",
"=.	c #FFC000",
"-.	c #E7AB01",
";.	c #7C6C2C",
">.	c #E6AA09",
",.	c #FFC300",
"'.	c #FFB700",
").	c #534A2E",
"!.	c #051E4A",
"~.	c #68542A",
"{.	c #FFA400",
"].	c #C27706",
"^.	c #7A511B",
"/.	c #FB8D01",
"(.	c #FC8700",
"_.	c #EEB500",
":.	c #FCBF00",
"<.	c #FABB00",
"[.	c #FFCA00",
"}.	c #FFC700",
"|.	c #FFBF00",
"1.	c #D49A09",
"2.	c #4F4A35",
"3.	c #B7820E",
"4.	c #4B442F",
"5.	c #E49907",
"6.	c #FFA900",
"7.	c #FFAA00",
"8.	c #FB9200",
"9.	c #FB8C00",
"0.	c #ECB400",
"a.	c #FCC000",
"b.	c #FEC300",
"c.	c #BB9618",
"d.	c #6B6435",
"e.	c #50533C",
"f.	c #1C3049",
"g.	c #AA831B",
"h.	c #FFC900",
"i.	c #856519",
"j.	c #1B283D",
"k.	c #4A412D",
"l.	c #644D24",
"m.	c #BA790F",
"n.	c #FE9B00",
"o.	c #EAB400",
"p.	c #FFC600",
"q.	c #E2AE03",
"r.	c #263B4F",
"s.	c #09295A",
"t.	c #0F2A53",
"u.	c #0E284F",
"v.	c #D4A60D",
"w.	c #926E17",
"x.	c #071C42",
"y.	c #061A3E",
"z.	c #00123D",
"A.	c #232730",
"B.	c #F59901",
"C.	c #FF9900",
"D.	c #E8B300",
"E.	c #E4AF01",
"F.	c #2E3F49",
"G.	c #0B2A59",
"H.	c #21344B",
"I.	c #192E4C",
"J.	c #192E48",
"K.	c #132746",
"L.	c #172841",
"M.	c #11223F",
"N.	c #192438",
"O.	c #00113C",
"P.	c #312F2D",
"Q.	c #FBA300",
"R.	c #FE9D00",
"S.	c #FEC400",
"T.	c #FAC000",
"U.	c #AA8B17",
"V.	c #AE8F1C",
"W.	c #DBA809",
"X.	c #504F33",
"Y.	c #021F50",
"Z.	c #202E40",
"`.	c #001848",
" +	c #625429",
".+	c #DA9E07",
"++	c #986F13",
"@+	c #BD840E",
"#+	c #FEAA00",
"$+	c #EBB700",
"%+	c #FCC300",
"&+	c #FFCC00",
"*+	c #9E7F15",
"=+	c #847127",
"-+	c #DFA806",
";+	c #6A5A23",
">+	c #BE8F12",
",+	c #FFC200",
"'+	c #FFBA00",
")+	c #FFB400",
"!+	c #FBA800",
"~+	c #E1B000",
"{+	c #FEC500",
"]+	c #FCC200",
"^+	c #FCC100",
"/+	c #FFC800",
"(+	c #FCB500",
"_+	c #FCB300",
":+	c #FFAF00",
"<+	c #FCC900",
"[+	c #FCC400",
"}+	c #FDC200",
"|+	c #FDBE00",
"1+	c #FCBB00",
"2+	c #FEB600",
"    . + @ # $ % & * = - ; > ,   ",
"  ' ) ! ~ { ] ^ / ( _ : < [ } | ",
"1 2 3 4 ! 5 5 6 7 8 9 0 a < b c ",
"d e f g h i j k l m n o p q < r ",
"s t u v w x y z A B C D E F a G ",
"H I J K L M N O P Q R S T U F : ",
"V W s X Y Z `  ...+.@.#.$.%.&._ ",
"*.=.-.;.>.,.'.).!.~.v {.].^./.(.",
"_.:.<.[.}.|.1.2.3.4.5.6.7.{.8.9.",
"0.a.b.c.d.e.f.g.h.i.j.k.l.m.n.8.",
"o.p.q.r.s.t.u.Z v.w.x.y.z.A.B.C.",
"D.}.E.F.G.H.I.J.K.L.M.N.O.P.Q.R.",
"D.S.T.U.V.W.X.Y.Z.`. +.+++@+#+~ ",
"$+%+%+[.&+[.*+=+-+;+>+,+'+)+!+! ",
"~+h.{+%+]+^+,+/+,+=.W (+_+f 3 :+",
"  $+<+[+%+]+}+a.:.|+1+I t e 2+3 "};
